<svg xmlns="http://www.w3.org/2000/svg" viewBox="0 0 1080 1080"><defs><style>.cls-1{fill:#fff;}.cls-2{fill:none;stroke:#000;stroke-miterlimit:10;stroke-width:7px;}.cls-3{font-size:62px;}.cls-3,.cls-4,.cls-5{font-family:KelsonSans-Bold, Kelson Sans;font-weight:700;}.cls-4{font-size:115px;letter-spacing:0.03em;}.cls-4,.cls-5{fill:#2e3192;}.cls-5{font-size:80px;letter-spacing:0.06em;}.cls-6{letter-spacing:0.06em;}.cls-7{fill:#7ac143;}.cls-8{fill:#00aeef;}.cls-9{fill:#ec008c;}.cls-10{fill:#f47b20;}</style></defs><title>final_logo</title><g id="final"><rect class="cls-1" width="1080" height="1080"/><circle class="cls-2" cx="554.82" cy="540" r="395"/><text class="cls-3" transform="matrix(-0.97, -0.25, 0.25, -0.97, 491.11, 853.2)">E</text><text class="cls-3" transform="translate(443.33 839.45) rotate(-155.98)">R</text><text class="cls-3" transform="translate(396.75 817.34) rotate(-146.69)">A</text><text class="cls-3" transform="translate(355.76 789.14) rotate(-137.55)">S</text><text class="cls-3" transform="translate(317.98 753.28) rotate(-127.51)">M</text><text class="cls-3" transform="translate(283.17 705.41) rotate(-117.24)">U</text><text class="cls-3" transform="matrix(-0.3, -0.95, 0.95, -0.3, 259.57, 656.67)">S</text><text class="cls-3" transform="translate(245.42 606.18) rotate(-99.95)"> </text><text class="cls-3" transform="matrix(-0.04, -1, 1, -0.04, 240.4, 575.93)">S</text><text class="cls-3" transform="translate(239.6 523.66) rotate(-83.79)">T</text><text class="cls-3" transform="matrix(0.26, -0.97, 0.97, 0.26, 245.13, 479.9)">U</text><text class="cls-3" transform="translate(260.5 428.01) rotate(-64.92)">D</text><text class="cls-3" transform="translate(284.83 379.39) rotate(-55.46)">E</text><text class="cls-3" transform="matrix(0.69, -0.72, 0.72, 0.69, 313.88, 339.04)">N</text><text class="cls-3" transform="matrix(0.79, -0.61, 0.61, 0.79, 351.94, 301.57)">T</text><text class="cls-3" transform="matrix(0.86, -0.51, 0.51, 0.86, 386.53, 276.61)"> </text><text class="cls-3" transform="translate(412.93 261.1) rotate(-23.19)">N</text><text class="cls-3" transform="translate(462.48 241.36) rotate(-13.77)">E</text><text class="cls-3" transform="translate(511.16 230.79) rotate(-5.22)">T</text><text class="cls-3" transform="translate(554.91 226.85) rotate(5.15)">W</text><text class="cls-3" transform="translate(624.93 235.31) rotate(16.39)">O</text><text class="cls-3" transform="translate(676.73 251.97) rotate(26.07)">R</text><text class="cls-3" transform="matrix(0.81, 0.58, -0.58, 0.81, 722.5, 275.63)">K</text><text class="cls-3" transform="translate(764.75 307.99) rotate(43.12)"> </text><text class="cls-3" transform="matrix(0.63, 0.77, -0.77, 0.63, 786.95, 329.1)">C</text><text class="cls-3" transform="translate(819.63 371.29) rotate(59.85)">Z</text><text class="cls-3" transform="translate(842.57 412.89) rotate(68.72)">E</text><text class="cls-3" transform="translate(859.48 459.09) rotate(78.05)">C</text><text class="cls-3" transform="matrix(0.04, 1, -1, 0.04, 869.34, 511.44)">H</text><text class="cls-3" transform="translate(869.56 567.04) rotate(95.6)"> </text><text class="cls-3" transform="translate(866.28 597.52) rotate(103.1)">R</text><text class="cls-3" transform="translate(853.36 647.45) rotate(112.37)">E</text><text class="cls-3" transform="translate(833.39 692.98) rotate(121.5)">P</text><text class="cls-3" transform="matrix(-0.66, 0.75, -0.75, -0.66, 806.02, 735.56)">U</text><text class="cls-3" transform="matrix(-0.77, 0.63, -0.63, -0.77, 769.55, 775.59)">B</text><text class="cls-3" transform="translate(727.38 808.32) rotate(149.82)">L</text><text class="cls-3" transform="translate(685.24 831.14) rotate(157.14)">I</text><text class="cls-3" transform="matrix(-0.97, 0.26, -0.26, -0.97, 655.33, 843.42)">C</text><text class="cls-4" transform="translate(262.91 614.69)">2002-2022</text><text class="cls-5" transform="translate(348.92 726.65)">#<tspan class="cls-6" x="61.12" y="0">E</tspan><tspan x="110.72" y="0">SNCZ20</tspan></text><circle cx="558.82" cy="884.3" r="7.5"/><g id="logo"><path class="cls-7" d="M574.19,279.53V339.8l-6.86,16.61h-17l-6.87-16.61V279.53a5.13,5.13,0,0,1,5.13-5.12h20.5A5.12,5.12,0,0,1,574.19,279.53Z"/><path class="cls-8" d="M500.94,298.43l42.51,41.37,6.89,16.6-12,12-16.6-6.88L480.34,319a5.12,5.12,0,0,1,.05-7.19l13.35-13.35A5.12,5.12,0,0,1,500.94,298.43Z"/><path class="cls-9" d="M461.44,361.53h60.27l16.61,6.87v17l-16.61,6.87H461.44a5.12,5.12,0,0,1-5.12-5.12v-20.5A5.13,5.13,0,0,1,461.44,361.53Z"/><path class="cls-10" d="M479.22,434.76l42.49-42.49,16.6-6.88,12,12L543.46,414l-42.64,41.49a5.12,5.12,0,0,1-7.07.07l-14.4-13.44A5.14,5.14,0,0,1,479.22,434.76Z"/><path class="cls-8" d="M543.44,474.28V414l6.87-16.6h17l6.86,16.6v60.27a5.13,5.13,0,0,1-5.12,5.13h-20.5A5.13,5.13,0,0,1,543.44,474.28Z"/><path class="cls-7" d="M616.69,455.38,574.18,414l-6.88-16.6,12-12,16.6,6.89,41.37,42.51a5.12,5.12,0,0,1,0,7.19L623.9,455.32A5.13,5.13,0,0,1,616.69,455.38Z"/><path class="cls-10" d="M656.19,392.28H595.92l-16.6-6.87v-17l16.6-6.87h60.27a5.13,5.13,0,0,1,5.13,5.13v20.5A5.13,5.13,0,0,1,656.19,392.28Z"/><path class="cls-9" d="M637.29,319l-41.36,42.51-16.6,6.88-12-12,6.89-16.6,42.51-41.36a5.12,5.12,0,0,1,7.2.05l13.35,13.35A5.12,5.12,0,0,1,637.29,319Z"/></g></g></svg>