<?xml version="1.0" encoding="utf-8"?>
<!-- Generator: Adobe Illustrator 16.0.0, SVG Export Plug-In . SVG Version: 6.00 Build 0)  -->
<!DOCTYPE svg PUBLIC "-//W3C//DTD SVG 1.1//EN" "http://www.w3.org/Graphics/SVG/1.1/DTD/svg11.dtd">
<svg version="1.1" id="Vrstva_1" xmlns="http://www.w3.org/2000/svg" xmlns:xlink="http://www.w3.org/1999/xlink" x="0px" y="0px"
	 width="292px" height="157.333px" viewBox="0 0 292 157.333" enable-background="new 0 0 292 157.333" xml:space="preserve">
<rect x="18.941" y="18.66" fill="#FFFFFF" width="126.163" height="126.162"/>
<rect x="150.76" y="84.567" fill="#5093CF" width="60.256" height="60.254"/>
<rect x="150.76" y="18.66" fill="#E73F58" width="60.256" height="60.256"/>
<rect x="216.669" y="18.66" fill="#FCC200" width="60.255" height="60.256"/>
<g>
	<path fill="#191817" d="M170.42,60.239h9.371c6.768,0,11.564-4.543,11.564-11.278s-4.797-11.278-11.564-11.278h-9.371V60.239z
		 M176.552,55.632V42.29h3.239c3.051,0,5.179,2.541,5.179,6.671s-2.128,6.671-5.179,6.671H176.552z"/>
	<path fill="#191817" d="M172.486,124.925c2.256,0.793,5.051,1.428,7.528,1.428c6.514,0,9.721-3.176,9.721-7.4
		c0-5.879-6.575-6.895-9.401-7.594c-1.208-0.316-2.162-0.699-2.162-1.873c0-1.049,0.827-1.811,2.478-1.811
		c2.352,0,4.416,0.762,6.927,1.523l1.017-4.764c-2.257-0.795-4.892-1.398-7.34-1.398c-6.48,0-9.212,3.367-9.212,7.148
		c0,5.875,6.323,6.83,9.056,7.465c1.364,0.381,2.539,0.699,2.539,2c0,1.176-0.984,2.033-2.73,2.033
		c-2.385,0-4.893-0.762-7.436-1.588L172.486,124.925z"/>
</g>
<polygon fill="#191817" points="238.268,60.238 255.074,60.238 255.328,55.632 245.511,55.632 248.116,52.36 255.328,42.289 
	255.328,37.684 238.522,37.684 238.268,42.289 248.084,42.289 245.479,45.562 238.268,55.632 "/>
<g>
	<path fill="#191817" d="M30.582,84.066c1.081,0.381,2.421,0.685,3.611,0.685c3.125,0,4.663-1.522,4.663-3.55
		c0-2.821-3.153-3.309-4.51-3.644c-0.58-0.153-1.038-0.335-1.038-0.899c0-0.504,0.397-0.87,1.19-0.87
		c1.129,0,2.12,0.366,3.323,0.732l0.488-2.285c-1.083-0.381-2.347-0.67-3.521-0.67c-3.11,0-4.42,1.613-4.42,3.428
		c0,2.821,3.031,3.278,4.343,3.583c0.657,0.183,1.221,0.335,1.221,0.96c0,0.564-0.473,0.976-1.312,0.976
		c-1.144,0-2.348-0.365-3.566-0.762L30.582,84.066z M40.198,84.568h2.94v-3.156h1.678c2.5,0,4.282-1.476,4.282-3.84
		c0-2.378-1.736-3.825-4.236-3.825h-4.664V84.568z M43.138,79.204v-3.249h1.206c1.022,0,1.692,0.55,1.692,1.617
		c0,1.053-0.716,1.632-1.753,1.632H43.138z M49.817,79.158c0,3.339,2.316,5.593,5.501,5.593c3.172,0,5.487-2.254,5.487-5.593
		c0-3.34-2.315-5.593-5.487-5.593C52.133,73.565,49.817,75.818,49.817,79.158 M52.878,79.158c0-2.043,1.038-3.385,2.44-3.385
		c1.388,0,2.44,1.342,2.44,3.385c0,2.028-1.052,3.385-2.44,3.385C53.917,82.543,52.878,81.187,52.878,79.158 M62.103,84.568h7.741
		l0.138-2.209h-4.939v-8.612h-2.94V84.568z M70.821,73.747v6.692c0,3.139,2.178,4.312,4.846,4.312s4.846-1.173,4.846-4.312v-6.692
		h-2.939v6.783c0,1.402-0.87,2.013-1.907,2.013c-1.053,0-1.921-0.61-1.921-2.013v-6.783H70.821z M82.07,84.568h2.94v-3.156h1.677
		c2.5,0,4.282-1.476,4.282-3.84c0-2.378-1.736-3.825-4.236-3.825H82.07V84.568z M85.01,79.204v-3.249h1.205
		c1.021,0,1.693,0.55,1.693,1.617c0,1.053-0.717,1.632-1.755,1.632H85.01z M97.997,84.568h3.505l-2.59-4.054
		c1.143-0.609,1.859-1.646,1.859-3.125c0-2.332-1.706-3.643-4.145-3.643h-4.557v10.821h2.94v-3.31l1.113-0.074L97.997,84.568z
		 M95.009,79.052v-3.097h1.082c0.977,0,1.633,0.52,1.633,1.541c0,1.007-0.687,1.556-1.679,1.556H95.009z M101.503,84.568h3.139
		l0.581-2.165h3.505l0.594,2.165h3.263l-3.736-10.821h-3.611L101.503,84.568z M106.442,77.894l0.532-2.027l0.55,2.027l0.609,2.302
		h-2.317L106.442,77.894z M107.31,70.196l-2.011,2.726h2.377l3.063-2.589L107.31,70.196z M112.586,79.158
		c0,3.903,2.574,5.593,5.471,5.593c1.25,0,2.544-0.319,3.642-0.838l-0.458-2.103c-1.004,0.381-2.026,0.671-2.925,0.671
		c-1.495,0-2.668-0.868-2.668-3.323c0-2.21,1.066-3.431,2.531-3.431c0.213,0,0.442,0.029,0.641,0.092l0.09,2.515l2.484-0.441
		l0.153-3.429c-1.129-0.625-2.225-0.898-3.399-0.898C114.962,73.565,112.586,75.742,112.586,79.158 M123.042,84.568h8.016
		l0.137-2.209h-5.212v-2.271l4.085,0.196v-2.345l-4.085,0.183v-2.167h4.923l0.137-2.208h-8V84.568z"/>
	<path fill="#191817" d="M30.336,66.276H38.4l0.121-2.208h-4.709l1.25-1.57l3.459-4.832v-2.209h-8.063l-0.122,2.209h4.71
		l-1.25,1.569l-3.46,4.833V66.276z M39.253,66.276h3.14l0.58-2.164h3.505l0.595,2.164h3.261L46.6,55.457h-3.612L39.253,66.276z
		 M44.192,59.603l0.533-2.027l0.549,2.027l0.61,2.302h-2.317L44.192,59.603z M51.326,66.276h2.94v-4.48h3.828v4.48h2.925V55.457
		h-2.925v4.131h-3.828v-4.131h-2.94V66.276z M68.627,66.276h3.504l-2.59-4.053c1.141-0.61,1.858-1.646,1.858-3.125
		c0-2.332-1.706-3.642-4.145-3.642h-4.557v10.819h2.94V62.97l1.114-0.077L68.627,66.276z M65.637,60.762v-3.096h1.083
		c0.976,0,1.632,0.518,1.632,1.54c0,1.007-0.687,1.556-1.677,1.556H65.637z M72.132,66.276h3.139l0.58-2.164h3.505l0.595,2.164
		h3.262l-3.734-10.819h-3.613L72.132,66.276z M77.07,59.603l0.533-2.027l0.549,2.027l0.61,2.302h-2.317L77.07,59.603z
		 M84.205,66.276h2.711v-4.205l-0.046-2.104l1.128,1.752l3.081,4.557h2.711V55.457h-2.711v4.206l0.046,2.088l-1.114-1.737
		l-3.095-4.557h-2.711V66.276z M95.468,66.276h2.94v-10.82h-2.94V66.276z M99.705,60.866c0,3.902,2.575,5.594,5.473,5.594
		c1.249,0,2.544-0.32,3.642-0.837l-0.458-2.103c-1.006,0.381-2.026,0.67-2.925,0.67c-1.495,0-2.669-0.869-2.669-3.324
		c0-2.211,1.067-3.431,2.532-3.431c0.213,0,0.442,0.031,0.64,0.092l0.091,2.517l2.484-0.442l0.152-3.43
		c-1.128-0.623-2.224-0.898-3.398-0.898C102.082,55.273,99.705,57.452,99.705,60.866 M103.546,54.632h2.821l1.98-2.589l-2.164-0.138
		l-1.188,1.295l-1.206-1.295l-2.21,0.138L103.546,54.632z M110.162,66.276h2.711v-4.205l-0.046-2.104l1.13,1.752l3.079,4.557h2.711
		V55.457h-2.711v4.206l0.046,2.088l-1.112-1.737l-3.097-4.557h-2.711V66.276z M121.426,66.276h2.94v-10.82h-2.94V66.276z
		 M123.178,51.905l-2.011,2.727h2.377l3.063-2.589L123.178,51.905z"/>
	<path fill="#191817" d="M30.596,47.986h4.495c3.248,0,5.548-2.178,5.548-5.41s-2.3-5.411-5.548-5.411h-4.495V47.986z
		 M33.536,45.778v-6.404h1.555c1.464,0,2.486,1.219,2.486,3.202c0,1.981-1.022,3.202-2.486,3.202H33.536z M41.829,37.165v6.692
		c0,3.14,2.179,4.312,4.847,4.312c2.667,0,4.846-1.172,4.846-4.312v-6.692h-2.94v6.784c0,1.401-0.87,2.012-1.906,2.012
		c-1.053,0-1.922-0.61-1.922-2.012v-6.784H41.829z M44.467,34.848c0,1.099,0.928,1.859,2.224,1.859c1.281,0,2.194-0.761,2.194-1.859
		c0-1.083-0.913-1.857-2.194-1.857C45.396,32.99,44.467,33.765,44.467,34.848 M46.126,34.848c0-0.336,0.183-0.564,0.565-0.564
		c0.352,0,0.565,0.229,0.565,0.564s-0.213,0.58-0.565,0.58C46.309,35.428,46.126,35.184,46.126,34.848 M52.667,47.986h2.774
		l0.488-5.35l0.153-2.195l0.563,2.195l1.433,5.35h3.171l1.402-5.35l0.564-2.195l0.167,2.195l0.519,5.35h2.957l-1.524-10.821h-3.597
		l-1.479,5.427l-0.503,2.148l-0.518-2.148l-1.448-5.427h-3.613L52.667,47.986z"/>
</g>
<path fill="#191817" d="M150.76,84.57h60.256v60.251H150.76V84.57z M150.76,18.661h60.256v60.252H150.76V18.661z M216.67,78.913
	V18.661h60.254v60.255H216.67V78.913z M18.942,18.66h126.162v126.162H18.942V18.66z M13.288,13.005v137.471H216.67V84.57h65.909
	V13.006L13.288,13.005z"/>
</svg>
