<?xml version="1.0" encoding="UTF-8" standalone="no"?>
<!-- Created with Inkscape (http://www.inkscape.org/) -->

<svg
   version="1.1"
   id="svg2"
   width="941.93597"
   height="230.17732"
   viewBox="0 0 941.93597 230.17732"
   sodipodi:docname="VSE_logo_EN_horizontal_blue.svg"
   inkscape:version="1.2 (dc2aedaf03, 2022-05-15)"
   xmlns:inkscape="http://www.inkscape.org/namespaces/inkscape"
   xmlns:sodipodi="http://sodipodi.sourceforge.net/DTD/sodipodi-0.dtd"
   xmlns="http://www.w3.org/2000/svg"
   xmlns:svg="http://www.w3.org/2000/svg">
  <defs
     id="defs6">
    <clipPath
       clipPathUnits="userSpaceOnUse"
       id="clipPath18">
      <path
         d="M 0,172.633 H 706.452 V 0 H 0 Z"
         id="path16" />
    </clipPath>
  </defs>
  <sodipodi:namedview
     id="namedview4"
     pagecolor="#ffffff"
     bordercolor="#000000"
     borderopacity="0.25"
     inkscape:showpageshadow="2"
     inkscape:pageopacity="0.0"
     inkscape:pagecheckerboard="0"
     inkscape:deskcolor="#d1d1d1"
     showgrid="false"
     inkscape:zoom="1.8801702"
     inkscape:cx="344.91557"
     inkscape:cy="115.68101"
     inkscape:window-width="1920"
     inkscape:window-height="1020"
     inkscape:window-x="0"
     inkscape:window-y="0"
     inkscape:window-maximized="1"
     inkscape:current-layer="g10">
    <inkscape:page
       x="0"
       y="0"
       id="page8"
       width="941.93597"
       height="230.17732" />
  </sodipodi:namedview>
  <g
     id="g10"
     inkscape:groupmode="layer"
     inkscape:label="Page 1"
     transform="matrix(1.3333333,0,0,-1.3333333,0,230.17733)">
    <g
       id="g12">
      <g
         id="g14"
         clip-path="url(#clipPath18)">
        <g
           id="g20"
           transform="translate(305.3149,137.9477)">
          <path
             d="m 0,0 v -8.434 h 3.058 c 1.528,0 3.096,0 4.233,0.713 1.059,0.633 1.764,1.861 1.764,3.563 0,0.95 -0.235,2.138 -1.176,3.01 C 6.703,0 5.645,0 2.901,0 Z m 3.058,3.405 c 3.175,0 5.645,0 7.879,-2.296 1.176,-1.188 2.078,-2.891 2.078,-5.346 0,-1.346 -0.236,-3.524 -2.235,-5.464 -1.685,-1.624 -3.802,-2.178 -7.958,-2.178 H 0 V -23.6 H -3.841 V 3.405 Z"
             style="fill:#009ee0;fill-opacity:1;fill-rule:nonzero;stroke:none"
             id="path22" />
        </g>
        <g
           id="g24"
           transform="translate(325.3818,138.0664)">
          <path
             d="m 0,0 v -8.513 h 1.49 c 0.588,0 2.665,0 3.724,0.396 1.803,0.713 2.548,2.415 2.548,3.88 0,1.545 -0.784,3.01 -2.039,3.604 C 4.743,-0.158 3.489,0 1.176,0 Z m 2.901,3.287 c 1.254,0 2.901,-0.119 4.586,-0.871 2.862,-1.228 4.195,-3.92 4.195,-6.653 0,-3.128 -1.568,-5.504 -4.469,-6.652 2.43,-1.623 3.92,-4.118 5.958,-7.444 1.137,-1.861 1.804,-2.772 3.646,-5.385 H 12.27 c -0.902,1.306 -4.626,7.206 -5.488,8.355 -2.627,3.405 -3.92,3.405 -5.762,3.405 H 0 v -11.76 H -3.802 V 3.287 Z"
             style="fill:#009ee0;fill-opacity:1;fill-rule:nonzero;stroke:none"
             id="path26" />
        </g>
        <g
           id="g28"
           transform="translate(359.0884,125.7915)">
          <path
             d="M 0,0 -4.312,9.78 -8.311,0 Z M 9.056,-11.443 H 5.136 L 1.568,-3.484 H -9.8 l -3.371,-7.959 h -3.92 L -5.605,15.72 H -2.9 Z"
             style="fill:#009ee0;fill-opacity:1;fill-rule:nonzero;stroke:none"
             id="path30" />
        </g>
        <g
           id="g32"
           transform="translate(392.7578,116.209)">
          <path
             d="m 0,0 c -2.039,-0.911 -5.332,-2.217 -9.801,-2.217 -10.349,0 -14.621,7.484 -14.621,13.621 0,7.127 5.291,14.097 14.465,14.097 3.762,0 6.545,-1.07 9.408,-2.297 v -3.96 c -4.39,2.574 -7.998,2.812 -9.486,2.812 -5.332,0 -10.389,-4.039 -10.389,-10.414 0,-5.979 4.274,-10.454 10.74,-10.454 1.961,0 3.293,0.356 5.842,1.188 v 5.623 h -5.136 v 3.405 H 0 Z"
             style="fill:#009ee0;fill-opacity:1;fill-rule:nonzero;stroke:none"
             id="path34" />
        </g>
        <g
           id="g36"
           transform="translate(420.543,126.0293)">
          <path
             d="m 0,0 c 0,-2.614 0,-6.375 -3.018,-9.107 -2.39,-2.139 -5.371,-2.931 -8.427,-2.931 -3.764,0 -7.918,1.307 -10.035,4.712 -1.491,2.376 -1.491,5.504 -1.491,7.326 v 15.324 h 3.842 V 0 c 0,-3.564 0.313,-4.95 1.686,-6.335 1.136,-1.188 2.9,-2.258 5.998,-2.258 4.31,0 6.193,2.258 6.898,3.564 0.51,0.95 0.744,2.376 0.744,5.029 V 15.324 H 0 Z"
             style="fill:#009ee0;fill-opacity:1;fill-rule:nonzero;stroke:none"
             id="path38" />
        </g>
        <g
           id="g40"
           transform="translate(440.8438,137.9082)">
          <path
             d="m 0,0 h -11.328 v -8.236 h 10.937 v -3.445 h -10.937 v -8.395 H 0.354 V -23.56 H -15.17 V 3.445 l 15.17,0 z"
             style="fill:#009ee0;fill-opacity:1;fill-rule:nonzero;stroke:none"
             id="path42" />
        </g>
        <g
           id="g44"
           transform="translate(479.0176,126.0293)">
          <path
             d="m 0,0 c 0,-2.614 0,-6.375 -3.018,-9.107 -2.39,-2.139 -5.371,-2.931 -8.427,-2.931 -3.764,0 -7.918,1.307 -10.035,4.712 -1.491,2.376 -1.491,5.504 -1.491,7.326 v 15.324 h 3.842 V 0 c 0,-3.564 0.313,-4.95 1.686,-6.335 1.136,-1.188 2.9,-2.258 5.998,-2.258 4.31,0 6.193,2.258 6.898,3.564 0.51,0.95 0.744,2.376 0.744,5.029 V 15.324 H 0 Z"
             style="fill:#009ee0;fill-opacity:1;fill-rule:nonzero;stroke:none"
             id="path46" />
        </g>
        <g
           id="g48"
           transform="translate(509.041,114.3481)">
          <path
             d="M 0,0 H -3.293 L -21.168,20.788 V 0 h -3.607 v 27.005 h 3.097 L -3.646,6.058 V 27.005 H 0 Z"
             style="fill:#009ee0;fill-opacity:1;fill-rule:nonzero;stroke:none"
             id="path50" />
        </g>
        <path
           d="m 518.441,114.348 h -3.84 v 27.005 h 3.84 z"
           style="fill:#009ee0;fill-opacity:1;fill-rule:nonzero;stroke:none"
           id="path52" />
        <g
           id="g54"
           transform="translate(533.6094,114.1899)">
          <path
             d="m 0,0 h -0.861 l -11.526,27.163 h 3.842 L -0.508,8.196 7.488,27.163 h 3.803 z"
             style="fill:#009ee0;fill-opacity:1;fill-rule:nonzero;stroke:none"
             id="path56" />
        </g>
        <g
           id="g58"
           transform="translate(562.8105,137.9082)">
          <path
             d="m 0,0 h -11.33 v -8.236 h 10.938 v -3.445 H -11.33 v -8.395 H 0.352 V -23.56 H -15.17 V 3.445 l 15.17,0 z"
             style="fill:#009ee0;fill-opacity:1;fill-rule:nonzero;stroke:none"
             id="path60" />
        </g>
        <g
           id="g62"
           transform="translate(571.7832,138.0664)">
          <path
             d="m 0,0 v -8.513 h 1.488 c 0.588,0 2.666,0 3.725,0.396 1.803,0.713 2.547,2.415 2.547,3.88 0,1.545 -0.783,3.01 -2.037,3.604 C 4.742,-0.158 3.488,0 1.176,0 Z m 2.9,3.287 c 1.254,0 2.901,-0.119 4.586,-0.871 2.862,-1.228 4.196,-3.92 4.196,-6.653 0,-3.128 -1.569,-5.504 -4.471,-6.652 2.432,-1.623 3.922,-4.118 5.959,-7.444 1.137,-1.861 1.803,-2.772 3.646,-5.385 h -4.547 c -0.902,1.306 -4.626,7.206 -5.488,8.355 -2.627,3.405 -3.92,3.405 -5.763,3.405 H 0 v -11.76 H -3.803 V 3.287 Z"
             style="fill:#009ee0;fill-opacity:1;fill-rule:nonzero;stroke:none"
             id="path64" />
        </g>
        <g
           id="g66"
           transform="translate(604.0391,135.4136)">
          <path
             d="m 0,0 c -2.273,2.217 -4.469,2.812 -6.271,2.812 -2.627,0 -4.235,-1.426 -4.235,-3.129 0,-2.296 1.568,-3.247 6.664,-6.256 1.137,-0.673 2.43,-1.624 3.449,-3.01 0.825,-1.068 1.452,-2.534 1.452,-4.474 0,-4.236 -3.02,-7.365 -7.762,-7.365 -2.627,0 -5.135,0.911 -7.213,2.495 v 4.91 c 0.783,-0.99 3.176,-3.96 7.213,-3.96 1.998,0 4.154,1.267 4.154,3.564 0,2.257 -2.273,3.92 -3.527,4.672 -4.235,2.574 -5.449,3.326 -6.625,4.831 -0.822,1.069 -1.332,2.336 -1.332,4.039 0,4.078 3.056,7.167 7.879,7.167 2.195,0 4.31,-0.673 6.154,-1.901 z"
             style="fill:#009ee0;fill-opacity:1;fill-rule:nonzero;stroke:none"
             id="path68" />
        </g>
        <path
           d="m 612.973,114.348 h -3.84 v 27.005 h 3.84 z"
           style="fill:#009ee0;fill-opacity:1;fill-rule:nonzero;stroke:none"
           id="path70" />
        <g
           id="g72"
           transform="translate(638.7656,137.9477)">
          <path
             d="m 0,0 h -9.33 v -23.6 h -3.842 V 0 h -9.174 V 3.405 H 0 Z"
             style="fill:#009ee0;fill-opacity:1;fill-rule:nonzero;stroke:none"
             id="path74" />
        </g>
        <g
           id="g76"
           transform="translate(653.0273,128.6426)">
          <path
             d="M 0,0 V -14.294 H -3.92 V 0 l -9.877,12.71 h 4.625 l 7.174,-9.305 7.252,9.305 h 4.625 z"
             style="fill:#009ee0;fill-opacity:1;fill-rule:nonzero;stroke:none"
             id="path78" />
        </g>
        <g
           id="g80"
           transform="translate(304.4526,86.5898)">
          <path
             d="m 0,0 c 0,-6.138 4.782,-10.176 10.388,-10.176 2.861,0 5.958,1.188 7.801,3.207 1.685,1.862 2.665,4.791 2.665,7.127 0,4.475 -3.371,10.137 -10.349,10.137 C 3.019,10.295 0,4.514 0,0 m 24.774,0.119 c 0,-7.762 -5.879,-13.898 -14.621,-13.898 -8.389,0 -14.112,6.256 -14.112,13.779 0,7.167 5.174,13.938 14.308,13.938 8.898,0 14.425,-6.573 14.425,-13.819"
             style="fill:#009ee0;fill-opacity:1;fill-rule:nonzero;stroke:none"
             id="path82" />
        </g>
        <g
           id="g84"
           transform="translate(348.0366,96.687)">
          <path
             d="M 0,0 H -10.427 V -7.484 H 0 v -3.484 h -10.427 v -12.553 h -3.841 V 3.484 L 0,3.484 Z"
             style="fill:#009ee0;fill-opacity:1;fill-rule:nonzero;stroke:none"
             id="path86" />
        </g>
        <g
           id="g88"
           transform="translate(377.7832,96.7265)">
          <path
             d="m 0,0 h -11.328 v -8.236 h 10.937 v -3.446 h -10.937 v -8.394 H 0.353 v -3.485 H -15.169 V 3.445 L 0,3.445 Z"
             style="fill:#009ee0;fill-opacity:1;fill-rule:nonzero;stroke:none"
             id="path90" />
        </g>
        <g
           id="g92"
           transform="translate(405.6113,94.1528)">
          <path
             d="m 0,0 c -2.822,1.624 -5.998,2.692 -9.252,2.692 -6.467,0 -10.584,-4.83 -10.584,-10.255 0,-5.029 3.529,-10.176 10.623,-10.176 3.371,0 6.664,1.148 9.486,3.009 v -4.237 c -3.095,-1.702 -6.31,-2.375 -9.72,-2.375 -9.918,0 -14.387,7.523 -14.387,13.818 0,7.444 5.998,13.899 14.465,13.899 4.115,0 7.644,-1.465 9.369,-2.217 z"
             style="fill:#009ee0;fill-opacity:1;fill-rule:nonzero;stroke:none"
             id="path94" />
        </g>
        <g
           id="g96"
           transform="translate(413.1719,86.5898)">
          <path
             d="m 0,0 c 0,-6.138 4.783,-10.176 10.389,-10.176 2.861,0 5.957,1.188 7.8,3.207 1.686,1.862 2.664,4.791 2.664,7.127 0,4.475 -3.371,10.137 -10.347,10.137 C 3.018,10.295 0,4.514 0,0 m 24.773,0.119 c 0,-7.762 -5.878,-13.898 -14.621,-13.898 -8.388,0 -14.111,6.256 -14.111,13.779 0,7.167 5.174,13.938 14.309,13.938 8.898,0 14.423,-6.573 14.423,-13.819"
             style="fill:#009ee0;fill-opacity:1;fill-rule:nonzero;stroke:none"
             id="path98" />
        </g>
        <g
           id="g100"
           transform="translate(467.3398,73.166)">
          <path
             d="M 0,0 H -3.293 L -21.168,20.789 V 0 h -3.605 v 27.005 h 3.095 L -3.645,6.059 V 27.005 H 0 Z"
             style="fill:#009ee0;fill-opacity:1;fill-rule:nonzero;stroke:none"
             id="path102" />
        </g>
        <g
           id="g104"
           transform="translate(475.6445,86.5898)">
          <path
             d="m 0,0 c 0,-6.138 4.783,-10.176 10.389,-10.176 2.861,0 5.957,1.188 7.801,3.207 1.685,1.862 2.663,4.791 2.663,7.127 0,4.475 -3.37,10.137 -10.347,10.137 C 3.018,10.295 0,4.514 0,0 m 24.773,0.119 c 0,-7.762 -5.878,-13.898 -14.621,-13.898 -8.388,0 -14.111,6.256 -14.111,13.779 0,7.167 5.174,13.938 14.309,13.938 8.898,0 14.423,-6.573 14.423,-13.819"
             style="fill:#009ee0;fill-opacity:1;fill-rule:nonzero;stroke:none"
             id="path106" />
        </g>
        <g
           id="g108"
           transform="translate(529.7754,73.166)">
          <path
             d="m 0,0 h -3.842 v 21.026 l -8.232,-10.454 h -0.705 L -21.09,21.026 V 0 h -3.842 v 27.005 h 3.606 l 8.898,-11.087 8.86,11.087 H 0 Z"
             style="fill:#009ee0;fill-opacity:1;fill-rule:nonzero;stroke:none"
             id="path110" />
        </g>
        <path
           d="m 539.215,73.166 h -3.84 v 27.005 h 3.84 z"
           style="fill:#009ee0;fill-opacity:1;fill-rule:nonzero;stroke:none"
           id="path112" />
        <g
           id="g114"
           transform="translate(567.7109,94.1528)">
          <path
             d="m 0,0 c -2.822,1.624 -5.996,2.692 -9.25,2.692 -6.469,0 -10.584,-4.83 -10.584,-10.255 0,-5.029 3.527,-10.176 10.623,-10.176 3.371,0 6.664,1.148 9.486,3.009 v -4.237 c -3.097,-1.702 -6.31,-2.375 -9.722,-2.375 -9.916,0 -14.385,7.523 -14.385,13.818 0,7.444 5.996,13.899 14.465,13.899 4.115,0 7.642,-1.465 9.367,-2.217 z"
             style="fill:#009ee0;fill-opacity:1;fill-rule:nonzero;stroke:none"
             id="path116" />
        </g>
        <g
           id="g118"
           transform="translate(585.582,94.2319)">
          <path
             d="m 0,0 c -2.273,2.217 -4.469,2.811 -6.271,2.811 -2.627,0 -4.235,-1.425 -4.235,-3.128 0,-2.296 1.568,-3.247 6.664,-6.257 1.137,-0.672 2.43,-1.623 3.45,-3.009 0.824,-1.069 1.451,-2.534 1.451,-4.473 0,-4.237 -3.02,-7.365 -7.762,-7.365 -2.627,0 -5.135,0.91 -7.213,2.494 v 4.91 c 0.783,-0.99 3.176,-3.96 7.213,-3.96 1.998,0 4.154,1.267 4.154,3.563 0,2.258 -2.273,3.92 -3.527,4.673 -4.234,2.573 -5.449,3.326 -6.625,4.831 -0.822,1.069 -1.332,2.336 -1.332,4.039 0,4.078 3.056,7.167 7.879,7.167 2.195,0 4.31,-0.673 6.154,-1.901 z"
             style="fill:#009ee0;fill-opacity:1;fill-rule:nonzero;stroke:none"
             id="path120" />
        </g>
        <g
           id="g122"
           transform="translate(315.8208,43.4287)">
          <path
             d="M 0,0 -4.312,9.78 -8.311,0 Z M 9.055,-11.443 H 5.135 L 1.568,-3.484 H -9.8 l -3.371,-7.959 h -3.92 L -5.606,15.72 h 2.705 z"
             style="fill:#009ee0;fill-opacity:1;fill-rule:nonzero;stroke:none"
             id="path124" />
        </g>
        <g
           id="g126"
           transform="translate(352.5063,31.9853)">
          <path
             d="M 0,0 H -3.292 L -21.167,20.788 V 0 h -3.607 v 27.005 h 3.097 L -3.645,6.059 V 27.005 H 0 Z"
             style="fill:#009ee0;fill-opacity:1;fill-rule:nonzero;stroke:none"
             id="path128" />
        </g>
        <g
           id="g130"
           transform="translate(361.8696,55.5449)">
          <path
             d="m 0,0 v -20.075 h 4.939 c 2,0 5.135,0.158 7.41,1.544 2.703,1.703 4.469,4.989 4.469,8.672 0,3.287 -1.49,7.048 -5.567,8.87 C 9.056,0 7.251,0 4.822,0 Z m 5.214,3.445 c 2.508,0 6.86,0 10.426,-2.771 2.981,-2.297 5.137,-6.099 5.137,-10.732 0,-6.849 -4.783,-10.453 -6.43,-11.482 -3.254,-2.02 -6.937,-2.02 -9.681,-2.02 H -3.802 V 3.445 Z"
             style="fill:#009ee0;fill-opacity:1;fill-rule:nonzero;stroke:none"
             id="path132" />
        </g>
        <g
           id="g134"
           transform="translate(401.7285,43.9433)">
          <path
             d="m 0,0 v -8.513 h 3.803 c 1.097,0 2.978,0 3.959,0.396 1.959,0.752 2.783,2.455 2.783,3.881 0,1.148 -0.549,2.85 -2.549,3.681 C 6.977,-0.118 5.684,0 3.606,0 Z M 0,11.602 V 3.484 h 2.547 c 0.98,0 2.666,0.079 3.607,0.634 0.745,0.396 2.078,1.465 2.078,3.604 0,1.505 -0.707,2.811 -1.882,3.365 -1.098,0.515 -2.666,0.515 -3.803,0.515 z m 3.215,3.445 c 1.92,0 3.213,-0.119 4.469,-0.594 2.547,-0.95 4.507,-3.089 4.507,-6.415 0,-2.297 -1.019,-4.395 -4.078,-5.702 3.92,-0.752 6.391,-3.484 6.391,-6.929 0,-4.395 -3.607,-6.257 -5.213,-6.81 -1.568,-0.555 -2.824,-0.555 -5.685,-0.555 h -7.409 v 27.005 z"
             style="fill:#009ee0;fill-opacity:1;fill-rule:nonzero;stroke:none"
             id="path136" />
        </g>
        <g
           id="g138"
           transform="translate(442.1797,43.666)">
          <path
             d="m 0,0 c 0,-2.613 0,-6.375 -3.02,-9.106 -2.39,-2.139 -5.369,-2.931 -8.427,-2.931 -3.764,0 -7.918,1.307 -10.035,4.712 -1.489,2.376 -1.489,5.504 -1.489,7.325 v 15.324 h 3.84 V 0 c 0,-3.564 0.315,-4.949 1.686,-6.335 1.136,-1.188 2.902,-2.257 5.998,-2.257 4.312,0 6.193,2.257 6.9,3.564 0.508,0.95 0.744,2.376 0.744,5.028 V 15.324 H 0 Z"
             style="fill:#009ee0;fill-opacity:1;fill-rule:nonzero;stroke:none"
             id="path140" />
        </g>
        <g
           id="g142"
           transform="translate(460.0098,53.0508)">
          <path
             d="m 0,0 c -2.273,2.218 -4.469,2.812 -6.272,2.812 -2.626,0 -4.234,-1.426 -4.234,-3.128 0,-2.297 1.568,-3.247 6.664,-6.257 1.137,-0.673 2.43,-1.623 3.449,-3.009 0.825,-1.069 1.452,-2.534 1.452,-4.475 0,-4.237 -3.02,-7.365 -7.762,-7.365 -2.627,0 -5.135,0.911 -7.213,2.495 v 4.909 c 0.783,-0.989 3.176,-3.959 7.213,-3.959 1.998,0 4.154,1.267 4.154,3.564 0,2.257 -2.273,3.92 -3.527,4.672 -4.235,2.574 -5.449,3.326 -6.625,4.831 -0.822,1.069 -1.332,2.336 -1.332,4.039 0,4.078 3.056,7.167 7.879,7.167 2.195,0 4.31,-0.673 6.154,-1.9 z"
             style="fill:#009ee0;fill-opacity:1;fill-rule:nonzero;stroke:none"
             id="path144" />
        </g>
        <path
           d="m 468.943,31.985 h -3.842 V 58.99 h 3.842 z"
           style="fill:#009ee0;fill-opacity:1;fill-rule:nonzero;stroke:none"
           id="path146" />
        <g
           id="g148"
           transform="translate(499.5566,31.9853)">
          <path
             d="M 0,0 H -3.293 L -21.168,20.788 V 0 h -3.605 v 27.005 h 3.095 L -3.645,6.059 V 27.005 H 0 Z"
             style="fill:#009ee0;fill-opacity:1;fill-rule:nonzero;stroke:none"
             id="path150" />
        </g>
        <g
           id="g152"
           transform="translate(520.248,55.5449)">
          <path
             d="m 0,0 h -11.328 v -8.235 h 10.937 v -3.446 h -10.937 v -8.394 H 0.354 V -23.56 H -15.17 V 3.445 l 15.17,0 z"
             style="fill:#009ee0;fill-opacity:1;fill-rule:nonzero;stroke:none"
             id="path154" />
        </g>
        <g
           id="g156"
           transform="translate(538.002,53.0508)">
          <path
             d="m 0,0 c -2.273,2.218 -4.469,2.812 -6.272,2.812 -2.626,0 -4.234,-1.426 -4.234,-3.128 0,-2.297 1.568,-3.247 6.664,-6.257 1.137,-0.673 2.43,-1.623 3.449,-3.009 0.825,-1.069 1.451,-2.534 1.451,-4.475 0,-4.237 -3.019,-7.365 -7.761,-7.365 -2.627,0 -5.135,0.911 -7.213,2.495 v 4.909 c 0.783,-0.989 3.176,-3.959 7.213,-3.959 1.998,0 4.154,1.267 4.154,3.564 0,2.257 -2.273,3.92 -3.527,4.672 -4.235,2.574 -5.449,3.326 -6.625,4.831 -0.822,1.069 -1.332,2.336 -1.332,4.039 0,4.078 3.056,7.167 7.879,7.167 2.195,0 4.31,-0.673 6.154,-1.9 z"
             style="fill:#009ee0;fill-opacity:1;fill-rule:nonzero;stroke:none"
             id="path158" />
        </g>
        <g
           id="g160"
           transform="translate(555.7559,53.0508)">
          <path
             d="m 0,0 c -2.274,2.218 -4.469,2.812 -6.272,2.812 -2.627,0 -4.234,-1.426 -4.234,-3.128 0,-2.297 1.568,-3.247 6.664,-6.257 1.137,-0.673 2.432,-1.623 3.451,-3.009 0.823,-1.069 1.45,-2.534 1.45,-4.475 0,-4.237 -3.018,-7.365 -7.762,-7.365 -2.625,0 -5.135,0.911 -7.213,2.495 v 4.909 c 0.785,-0.989 3.176,-3.959 7.213,-3.959 2,0 4.156,1.267 4.156,3.564 0,2.257 -2.273,3.92 -3.529,4.672 -4.233,2.574 -5.448,3.326 -6.623,4.831 -0.825,1.069 -1.334,2.336 -1.334,4.039 0,4.078 3.058,7.167 7.879,7.167 2.195,0 4.312,-0.673 6.154,-1.9 z"
             style="fill:#009ee0;fill-opacity:1;fill-rule:nonzero;stroke:none"
             id="path162" />
        </g>
        <g
           id="g164"
           transform="translate(286.748,144.2915)">
          <path
             d="m 0,0 -46.363,-115.677 h -7.109 L -6.956,0 Z"
             style="fill:#009ee0;fill-opacity:1;fill-rule:nonzero;stroke:none"
             id="path166" />
        </g>
        <g
           id="g168"
           transform="translate(141.5352,141.2168)">
          <path
             d="M 0,0 H 78.978 V -25.134 H 39.39 V -41.07 H 76.91 V -66.129 H 39.39 v -17.853 h 40.427 v -25.911 H 0 Z"
             style="fill:#009ee0;fill-opacity:1;fill-rule:nonzero;stroke:none"
             id="path170" />
        </g>
        <g
           id="g172"
           transform="translate(87.9614,112.8037)">
          <path
             d="M 0,0 C 0,9.404 5.861,16.981 14.431,19.759 L 2.501,-9.81 C 0.92,-7.182 0,-3.996 0,0 M 8.372,-15.833 23.153,20.89 c 6.466,-0.247 11.869,-2.326 21.771,-8.34 v 9.333 C 36.899,26.546 29.035,28.8 21.02,28.8 4.687,28.8 -8.62,15.929 -8.62,-0.323 c 0,-8.806 2.913,-14.656 7.315,-18.922 l -18.21,-45.136 -37.763,92.837 H -65.55 L -20.762,-82.4 h 2.34 l 23.514,58.417 c 14.544,-8.455 35.444,-9.724 35.444,-30.078 0,-12.39 -9.537,-21.881 -21.785,-21.881 -8.015,0 -14.518,2.895 -26.012,11.744 v -9.977 c 9.073,-6.434 17.997,-9.652 26.466,-9.652 16.787,0 29.955,13.193 29.955,30.087 0,28.371 -26.754,28.194 -40.788,37.907"
             style="fill:#009ee0;fill-opacity:1;fill-rule:nonzero;stroke:none"
             id="path174" />
        </g>
        <path
           d="M 128.025,148.088 H 89.898 v 7.768 h 38.127 z"
           style="fill:#009ee0;fill-opacity:1;fill-rule:nonzero;stroke:none"
           id="path176" />
      </g>
    </g>
  </g>
</svg>
